<svg class="svg-icon" style="width: 1em;height: 1em;vertical-align: middle;fill: currentColor;overflow: hidden;" viewBox="0 0 1024 1024" version="1.1" xmlns="http://www.w3.org/2000/svg"><path d="M512 789.4c-61.9 0-126-13.7-190.4-40.6-50.9-21.3-102.2-50.9-152.3-88-44.8-33.2-80.1-66-101.8-87.7-12.9-13-22.4-23.2-28-29.6-11.3-12.8-17-19.2-17-31.5 0-7.2 2.5-14.1 7.1-19.6 2.2-2.6 54.7-65.2 139.7-128.4 50.2-37.3 101.4-67.1 152.2-88.5 64.5-27.2 128.6-41 190.5-41 61.9 0 126 13.8 190.5 41 50.8 21.4 102.1 51.2 152.2 88.5 85 63.2 137.5 125.8 139.7 128.4 7.2 8.6 9.1 20.5 4.9 30.9-1.8 4.4-3 6.7-15.2 20.3-5.7 6.4-15.3 16.7-28 29.5-21.8 21.8-57.1 54.7-101.7 87.7-50.1 37.1-101.2 66.7-152.1 88-64.3 26.9-128.4 40.6-190.3 40.6zM94 512.3c21.1 22.7 62.5 63.8 119.4 104.9 70.2 50.6 178.9 111 298.6 111 120.3 0 229.6-61 300-112.3 55.3-40.2 96.4-80.9 117.8-103.8-21.3-22.5-60.8-61.4-112.8-99.9-71.8-53.2-183-116.5-305.1-116.5-122.1 0-233.3 63.4-305.1 116.5-52 38.7-91.6 77.7-112.8 100.1z" fill="#717070" /><path d="M512 623.2c-61.3 0-111.2-49.9-111.2-111.2 0-61.3 49.9-111.2 111.2-111.2 61.3 0 111.2 49.9 111.2 111.2 0 61.3-49.9 111.2-111.2 111.2z m0-161.2c-27.6 0-50 22.4-50 50s22.4 50 50 50 50-22.4 50-50-22.4-50-50-50z" fill="#E89022" /></svg>