<svg class="svg-icon" style="width: 1em; height: 1em;vertical-align: middle;fill: currentColor;overflow: hidden;" viewBox="0 0 1024 1024" version="1.1" xmlns="http://www.w3.org/2000/svg"><path d="M512 619.38c29.23 0 59.78-45.83 59.78-107.6s-30.56-107.6-59.78-107.6c-29.22 0-59.78 45.83-59.78 107.6s30.55 107.6 59.78 107.6z m0 71.72c-76.42 0-131.5-82.63-131.5-179.33S435.58 332.45 512 332.45s131.5 82.63 131.5 179.33S588.42 691.1 512 691.1z m0 71.74c169.63 0 346.7-150.95 346.7-251.06S681.63 260.72 512 260.72c-164.37 0-346.7 160.27-346.7 251.06S347.63 762.84 512 762.84z m0 71.73c-202.08 0-418.44-190.18-418.44-322.79S309.92 188.99 512 188.99c206.94 0 418.44 180.3 418.44 322.79S718.94 834.57 512 834.57z" fill="#262626" /></svg>